<svg width="141" height="40" viewBox="0 0 141 40" fill="none" xmlns="http://www.w3.org/2000/svg">
<path d="M28.0499 0.00927284C28.3924 0.0260706 28.7349 0.0428685 29.1266 0.107426C29.37 0.145357 29.5642 0.135523 29.7584 0.125692C29.902 0.144698 30.0456 0.163704 30.2277 0.220475C30.3314 0.245375 30.3965 0.232511 30.4616 0.219647C31.0104 0.323216 31.5593 0.426784 32.1472 0.591C32.4769 0.779161 32.7574 0.94571 33.0606 1.02412C33.4237 1.118 33.8062 1.13663 34.1803 1.18784C34.2924 1.22028 34.4044 1.25271 34.5511 1.33585C34.677 1.47018 34.7546 1.58346 34.8616 1.63274C35.7663 2.04925 36.6831 2.41394 37.3965 3.17855C37.8403 3.65417 38.0314 4.21097 38.1757 4.78474C38.2564 5.10559 38.3302 5.33121 38.6332 5.48638C39.0721 5.71109 39.2828 6.07512 39.175 6.58309C37.1335 4.75051 34.8316 3.3844 32.1755 2.63746C24.7502 0.549333 16.7894 3.76688 12.8707 10.4366C12.046 11.8402 11.4312 13.3271 10.9331 14.9289C10.7551 15.0763 10.6271 15.1824 10.4991 15.2885C10.6148 15.3362 10.7304 15.3839 10.8461 15.4316C10.7686 15.8521 10.6911 16.2725 10.5565 16.7092C10.4424 16.7672 10.3855 16.8089 10.3286 16.8507C10.4067 16.8546 10.4847 16.8585 10.5628 16.8624C10.5418 17.0742 10.5209 17.2861 10.4491 17.5358C10.331 17.6237 10.2636 17.6739 10.1962 17.7241C10.2812 17.7732 10.3663 17.8224 10.4514 17.8716C10.4419 18.0825 10.4325 18.2934 10.3677 18.5497C10.0983 18.8725 10.0315 19.1396 10.3669 19.3787C10.3965 19.8187 10.4262 20.2588 10.425 20.7485C10.4133 20.861 10.4324 20.9237 10.4515 20.9865C10.5731 21.763 10.6948 22.5395 10.7859 23.3562C10.715 23.4521 10.6745 23.5079 10.634 23.5637C10.7136 23.6083 10.7932 23.6529 10.8728 23.6975C10.9772 23.8161 11.0816 23.9347 11.24 24.0761C11.9091 23.9141 12.5248 23.7307 13.138 23.5394C13.1637 23.5313 13.1667 23.4501 13.1802 23.403C13.5469 22.9976 13.4245 22.5549 13.2358 22.1392C12.8082 21.1973 12.3448 20.2717 11.9076 19.334C11.4908 18.4403 11.5428 18.3668 12.5196 18.2049C12.9319 18.1366 13.2251 18.2937 13.5 18.5738C14.4147 19.5059 15.3545 20.4139 16.2524 21.3617C16.9157 22.062 17.6564 22.2146 18.5692 21.9461C24.0862 20.323 29.6091 18.7199 35.1303 17.111C37.4258 16.442 39.6334 16.8883 41.7944 17.6905C42.5175 17.9589 42.6248 18.5996 42.1239 19.242C41.5096 20.0298 40.6797 20.5547 39.7589 20.8702C37.9642 21.4852 36.144 22.0261 34.3314 22.5882C32.3753 23.1948 30.4037 23.7539 28.4617 24.4022C26.8815 24.9297 25.2487 24.9809 23.6201 25.1057C21.5711 25.2628 19.5208 25.4019 17.4695 25.6213C19.9569 25.7255 22.4444 25.8303 24.9319 25.9337C27.3966 26.0362 29.8615 26.1374 32.3319 26.2852C31.0883 26.8134 29.8416 27.3867 28.464 27.2644C27.4956 27.1785 26.6076 27.2994 25.7587 27.7382C24.9796 28.1409 24.175 28.0246 23.3276 27.8296C23.8056 27.609 24.2836 27.3883 24.8512 27.1264C16.565 26.6336 8.36618 26.146 0.0544519 25.6517C0.541302 25.5206 0.930554 25.4157 1.35034 25.3027C0.888712 24.5784 0.444356 23.8811 0 23.1839C0.0324198 23.1301 0.0648409 23.0763 0.0972606 23.0225C0.331292 23.1098 0.610174 23.1432 0.791342 23.294C1.4598 23.8504 2.08363 24.4604 2.75212 25.0167C2.93905 25.1723 3.21622 25.2719 3.46164 25.2951C4.29439 25.3737 5.13852 25.4977 5.96507 25.4336C6.96746 25.356 7.9564 25.1048 8.95288 24.9283C8.74605 23.5976 8.55752 22.3847 8.40961 21.1138C8.48564 20.9 8.54852 20.7449 8.55164 20.5885C8.56364 19.987 8.59231 19.3824 8.547 18.784C8.49575 18.1072 8.69517 17.6011 9.25756 17.1945C9.47697 17.0359 9.64232 16.7363 9.72313 16.468C9.83905 16.0832 9.8358 15.6643 9.91862 15.2673C10.016 14.8007 10.1489 14.3415 10.2705 13.8801C10.3417 13.6097 10.3971 13.3318 10.501 13.0739C10.8468 12.2154 11.2119 11.3647 11.5684 10.5105C11.7407 10.0976 11.8617 9.65417 12.0904 9.27558C12.7336 8.21066 13.3441 7.12149 14.2726 6.25394C14.6385 5.91213 14.5238 5.6747 14.0197 5.58709C14.1806 5.42375 14.3415 5.2604 14.549 5.11256C14.7269 5.13393 14.8581 5.13978 14.9894 5.14564C14.9477 5.03048 14.9061 4.91533 14.8644 4.80017C15.1532 4.54493 15.4419 4.28969 15.7869 4.04401C15.9599 3.94239 16.0765 3.83122 16.1932 3.72005C16.3089 3.62633 16.4246 3.5326 16.5922 3.44591C16.6946 3.40253 16.7452 3.35213 16.7958 3.30173C16.9113 3.21183 17.0269 3.12194 17.1943 3.04147C17.2974 3.00176 17.3486 2.95263 17.3999 2.90349C17.5078 2.83124 17.6156 2.75898 17.7763 2.70667C17.9601 2.74893 18.0911 2.77125 18.2221 2.79358C18.1918 2.68429 18.1614 2.575 18.1311 2.46572C18.2889 2.37388 18.4468 2.28204 18.6719 2.20323C19.1839 2.54394 19.5097 2.26101 19.8402 2.00191C20.0342 1.84988 20.2186 1.58554 20.4246 1.56735C21.0797 1.50948 21.642 1.25789 22.2304 0.993286C22.7489 0.760125 23.3558 0.728611 23.9162 0.579875C24.0377 0.547628 24.1272 0.39516 24.2315 0.298068C24.5734 0.23646 24.9152 0.174859 25.3109 0.14942C25.5063 0.155369 25.6478 0.125153 25.7892 0.0949362C26.1454 0.0619968 26.5016 0.0290542 26.9161 0.0379254C27.3439 0.222683 27.7099 0.314461 28.0499 0.00927284Z" fill="white"/>
<path d="M39.1931 6.60895C39.2828 6.07512 39.0721 5.71109 38.6332 5.48638C38.3302 5.33121 38.2564 5.10559 38.1757 4.78474C38.0314 4.21097 37.8403 3.65417 37.3965 3.17855C36.6831 2.41394 35.7663 2.04925 34.8616 1.63274C34.7546 1.58346 34.677 1.47018 34.5832 1.35119C39.9629 3.50675 43.7688 7.27907 45.7024 12.7683C48.5751 20.9233 46.0777 29.3692 39.3503 34.7993C36.4425 37.1464 33.1087 38.5512 29.4994 39.3653C28.4273 39.6071 27.3419 39.7898 26.2622 39.9971C26.2118 40.0067 26.1567 39.9919 26.1012 39.9609C29.6801 38.8966 33.0969 37.4935 36.0991 35.2437C39.7834 32.4828 42.6887 29.067 43.9814 24.5867C45.9367 17.8101 44.3691 11.8457 39.3886 6.81199C39.3298 6.75258 39.2704 6.69386 39.1931 6.60895Z" fill="white"/>
<path d="M13.9912 5.60102C14.5238 5.67469 14.6385 5.91213 14.2726 6.25394C13.3441 7.12149 12.7336 8.21066 12.0904 9.27558C11.8617 9.65417 11.7407 10.0976 11.5684 10.5105C11.2119 11.3647 10.8468 12.2154 10.501 13.0739C10.3971 13.3318 10.3417 13.6097 10.2705 13.8801C10.1489 14.3415 10.016 14.8007 9.91862 15.2673C9.8358 15.6643 9.83905 16.0832 9.72313 16.468C9.64232 16.7363 9.47697 17.0359 9.25756 17.1945C8.69517 17.6011 8.49575 18.1072 8.547 18.784C8.59231 19.3824 8.56364 19.987 8.55164 20.5885C8.54852 20.7449 8.48564 20.9 8.41483 21.0714C7.94371 15.1009 9.81158 9.94594 13.9912 5.60102Z" fill="white"/>
<path d="M24.1904 0.293763C24.1272 0.395154 24.0377 0.547628 23.9162 0.579875C23.3558 0.728611 22.7489 0.760125 22.2304 0.993286C21.642 1.25789 21.0797 1.50948 20.4246 1.56735C20.2186 1.58554 20.0342 1.84988 19.8402 2.00191C19.5097 2.26101 19.1839 2.54393 18.706 2.19911C20.2277 1.28451 21.9226 0.776312 23.6606 0.388561C23.8228 0.352383 23.9863 0.322351 24.1904 0.293763Z" fill="white"/>
<path d="M34.1564 1.16033C33.8062 1.13662 33.4237 1.118 33.0606 1.02412C32.7574 0.94571 32.4769 0.779155 32.1779 0.616018C32.8237 0.764537 33.4781 0.948679 34.1564 1.16033Z" fill="white"/>
<path d="M13.1437 23.4108C13.1667 23.4501 13.1637 23.5313 13.138 23.5394C12.5248 23.7307 11.9091 23.9141 11.2815 24.0686C11.8818 23.8317 12.4945 23.6251 13.1437 23.4108Z" fill="white"/>
<path d="M28.0046 0.000528729C27.7099 0.31445 27.3439 0.222672 26.9593 0.0449059C27.2825 0.0039876 27.6209 -0.00210838 28.0046 0.000528729Z" fill="white"/>
<path d="M14.8361 4.80829C14.9061 4.91531 14.9477 5.03048 14.9894 5.14564C14.8581 5.13978 14.7269 5.13391 14.5796 5.09694C14.6449 4.98269 14.7263 4.89955 14.8361 4.80829Z" fill="white"/>
<path d="M10.8567 15.4036C10.7304 15.3839 10.6148 15.3362 10.4991 15.2885C10.6271 15.1824 10.755 15.0763 10.9183 14.9638C10.9248 15.0968 10.896 15.2362 10.8567 15.4036Z" fill="white"/>
<path d="M18.1031 2.47423C18.1615 2.575 18.1918 2.68429 18.2221 2.79358C18.0911 2.77125 17.9601 2.74893 17.8083 2.69805C17.8834 2.60724 17.9793 2.54499 18.1031 2.47423Z" fill="white"/>
<path d="M10.3763 19.3348C10.0315 19.1396 10.0983 18.8725 10.3503 18.5852C10.3874 18.8138 10.3865 19.0524 10.3763 19.3348Z" fill="white"/>
<path d="M29.7271 0.113801C29.5642 0.135511 29.3699 0.145345 29.1653 0.121218C29.3352 0.0921486 29.5155 0.0970365 29.7271 0.113801Z" fill="white"/>
<path d="M16.1623 3.72655C16.0765 3.83121 15.9599 3.94238 15.8193 4.0352C15.9074 3.92225 16.0193 3.82765 16.1623 3.72655Z" fill="white"/>
<path d="M10.4605 17.8346C10.3663 17.8224 10.2812 17.7732 10.1962 17.7241C10.2636 17.6739 10.331 17.6237 10.4335 17.5718C10.469 17.6459 10.4693 17.7217 10.4605 17.8346Z" fill="white"/>
<path d="M10.8756 23.6651C10.7932 23.6529 10.7136 23.6083 10.634 23.5637C10.6745 23.5079 10.715 23.4521 10.7884 23.3899C10.8404 23.4666 10.8594 23.5497 10.8756 23.6651Z" fill="white"/>
<path d="M25.7575 0.0883496C25.6478 0.125147 25.5063 0.155363 25.3505 0.153502C25.4661 0.108205 25.5959 0.0949883 25.7575 0.0883496Z" fill="white"/>
<path d="M10.5692 16.8507C10.4847 16.8585 10.4067 16.8546 10.3286 16.8507C10.3855 16.8089 10.4424 16.7672 10.5368 16.743C10.5819 16.7862 10.5824 16.8124 10.5692 16.8507Z" fill="white"/>
<path d="M17.3704 2.90576C17.3486 2.95262 17.2974 3.00175 17.2256 3.03603C17.2503 2.98347 17.2956 2.94575 17.3704 2.90576Z" fill="white"/>
<path d="M16.7664 3.3055C16.7452 3.35213 16.6946 3.40253 16.6231 3.43826C16.6472 3.38548 16.6921 3.34737 16.7664 3.3055Z" fill="white"/>
<path d="M30.4362 0.209212C30.3965 0.232507 30.3314 0.245371 30.2568 0.230364C30.3018 0.201257 30.3563 0.200019 30.4362 0.209212Z" fill="white"/>
<path d="M10.4578 20.9529C10.4324 20.9237 10.4133 20.861 10.4196 20.7917C10.4513 20.8299 10.4577 20.8747 10.4578 20.9529Z" fill="white"/>
<path d="M66.8058 31.836C65.3311 31.836 63.9591 31.5653 62.6898 31.024C61.4391 30.4827 60.3378 29.736 59.3858 28.784C58.4525 27.8133 57.7245 26.6747 57.2018 25.368C56.6791 24.0613 56.4178 22.624 56.4178 21.056C56.4178 19.5067 56.6698 18.0787 57.1738 16.772C57.6965 15.4467 58.4245 14.308 59.3578 13.356C60.2911 12.3853 61.3831 11.6387 62.6338 11.116C63.8845 10.5747 65.2565 10.304 66.7498 10.304C68.2245 10.304 69.5405 10.556 70.6978 11.06C71.8738 11.564 72.8631 12.2267 73.6658 13.048C74.4685 13.8507 75.0471 14.728 75.4018 15.68L72.4618 17.108C72.0325 15.9693 71.3231 15.0547 70.3338 14.364C69.3445 13.6547 68.1498 13.3 66.7498 13.3C65.3685 13.3 64.1458 13.6267 63.0818 14.28C62.0178 14.9333 61.1871 15.8387 60.5898 16.996C60.0111 18.1533 59.7218 19.5067 59.7218 21.056C59.7218 22.6053 60.0205 23.968 60.6178 25.144C61.2338 26.3013 62.0738 27.2067 63.1378 27.86C64.2018 28.4947 65.4245 28.812 66.8058 28.812C67.9631 28.812 69.0178 28.5787 69.9698 28.112C70.9405 27.6267 71.7151 26.9547 72.2938 26.096C72.8725 25.2187 73.1618 24.2013 73.1618 23.044V21.616L74.6458 22.96H66.7498V20.16H76.4378V22.12C76.4378 23.6507 76.1765 25.0227 75.6538 26.236C75.1311 27.4307 74.4218 28.448 73.5258 29.288C72.6298 30.128 71.6031 30.7627 70.4458 31.192C69.2885 31.6213 68.0751 31.836 66.8058 31.836ZM85.9712 31.836C84.5152 31.836 83.1805 31.4907 81.9672 30.8C80.7725 30.1093 79.8205 29.1667 79.1112 27.972C78.4018 26.7773 78.0472 25.424 78.0472 23.912C78.0472 22.3813 78.4018 21.028 79.1112 19.852C79.8205 18.6573 80.7725 17.724 81.9672 17.052C83.1618 16.3613 84.4965 16.016 85.9712 16.016C87.4645 16.016 88.7992 16.3613 89.9752 17.052C91.1698 17.724 92.1125 18.6573 92.8032 19.852C93.5125 21.028 93.8672 22.3813 93.8672 23.912C93.8672 25.4427 93.5125 26.8053 92.8032 28C92.0938 29.1947 91.1418 30.1373 89.9472 30.828C88.7525 31.5 87.4272 31.836 85.9712 31.836ZM85.9712 28.896C86.8672 28.896 87.6605 28.6813 88.3512 28.252C89.0418 27.8227 89.5832 27.2347 89.9752 26.488C90.3858 25.7227 90.5912 24.864 90.5912 23.912C90.5912 22.96 90.3858 22.1107 89.9752 21.364C89.5832 20.6173 89.0418 20.0293 88.3512 19.6C87.6605 19.1707 86.8672 18.956 85.9712 18.956C85.0938 18.956 84.3005 19.1707 83.5912 19.6C82.9005 20.0293 82.3498 20.6173 81.9392 21.364C81.5472 22.1107 81.3512 22.96 81.3512 23.912C81.3512 24.864 81.5472 25.7227 81.9392 26.488C82.3498 27.2347 82.9005 27.8227 83.5912 28.252C84.3005 28.6813 85.0938 28.896 85.9712 28.896ZM100.12 31.5V13.58H94.5761V10.64H108.856V13.58H103.396V31.5H100.12ZM108.51 31.5V16.352H111.534V19.404L111.254 18.956C111.59 17.9667 112.132 17.2573 112.878 16.828C113.625 16.38 114.521 16.156 115.566 16.156H116.49V19.04H115.174C114.129 19.04 113.28 19.3667 112.626 20.02C111.992 20.6547 111.674 21.5693 111.674 22.764V31.5H108.51ZM117.815 31.5V16.352H120.979V31.5H117.815ZM117.815 14.28V10.64H120.979V14.28H117.815ZM123.838 37.1V16.352H126.862V19.488L126.498 18.76C127.058 17.9013 127.805 17.2293 128.738 16.744C129.672 16.2587 130.736 16.016 131.93 16.016C133.368 16.016 134.656 16.3613 135.794 17.052C136.952 17.7427 137.857 18.6853 138.51 19.88C139.182 21.0747 139.518 22.4187 139.518 23.912C139.518 25.4053 139.182 26.7493 138.51 27.944C137.857 29.1387 136.961 30.0907 135.822 30.8C134.684 31.4907 133.386 31.836 131.93 31.836C130.754 31.836 129.681 31.5933 128.71 31.108C127.758 30.6227 127.021 29.9227 126.498 29.008L127.002 28.42V37.1H123.838ZM131.622 28.896C132.518 28.896 133.312 28.6813 134.002 28.252C134.693 27.8227 135.234 27.2347 135.626 26.488C136.037 25.7227 136.242 24.864 136.242 23.912C136.242 22.96 136.037 22.1107 135.626 21.364C135.234 20.6173 134.693 20.0293 134.002 19.6C133.312 19.1707 132.518 18.956 131.622 18.956C130.745 18.956 129.952 19.1707 129.242 19.6C128.552 20.0293 128.001 20.6173 127.59 21.364C127.198 22.1107 127.002 22.96 127.002 23.912C127.002 24.864 127.198 25.7227 127.59 26.488C128.001 27.2347 128.552 27.8227 129.242 28.252C129.952 28.6813 130.745 28.896 131.622 28.896Z" fill="white"/>
</svg>
